<svg xmlns="http://www.w3.org/2000/svg" width="48" height="44.311" viewBox="0 0 48 44.311">
  <g>
    <path d="M40.655,28.883l7.131-7.129a.727.727,0,0,0-.514-1.242H44.223a22.142,22.142,0,1,0-22.068,23.8,21.973,21.973,0,0,0,2.42-.145.728.728,0,0,0,.648-.723V36.37a.729.729,0,0,0-.845-.717A13.687,13.687,0,1,1,35.727,20.511H33.01a.727.727,0,0,0-.514,1.242l7.131,7.129A.724.724,0,0,0,40.655,28.883Zm-5.889-6.918h1.758a.727.727,0,0,0,.726-.772,15.136,15.136,0,1,0-15.1,16.1,14.1,14.1,0,0,0,1.614-.092v5.578c-.577.049-1.11.072-1.614.072A20.7,20.7,0,1,1,42.809,21.269a.8.8,0,0,0,.8.7h1.9l-5.375,5.373Z" fill="#453a89"/>
    <path d="M32.541,40.432a4.606,4.606,0,1,0-4.606-4.605.728.728,0,0,0,1.455,0,3.152,3.152,0,1,1,3.151,3.15,4.611,4.611,0,0,0-4.606,4.605.729.729,0,0,0,.728.729H36.42a.728.728,0,0,0,0-1.456H29.475A3.154,3.154,0,0,1,32.541,40.432Z" fill="#453a89"/>
    <path d="M47.272,33.158a.728.728,0,0,0-.727.729v4.121H41.329V31.947a.728.728,0,1,0-1.455,0v6.787a.727.727,0,0,0,.728.727h5.943v4.121a.728.728,0,1,0,1.455,0V33.887A.73.73,0,0,0,47.272,33.158Z" fill="#453a89"/>
    <path d="M22.154,10.16a.728.728,0,0,0-.727.729V19.1a3.148,3.148,0,1,0,3.786,3.787h4.318a.728.728,0,0,0,0-1.456H25.213A3.153,3.153,0,0,0,22.882,19.1V10.888A.728.728,0,0,0,22.154,10.16Zm1.7,11.994a1.7,1.7,0,1,1-1.7-1.7A1.7,1.7,0,0,1,23.852,22.154Z" fill="#453a89"/>
  </g>
</svg>
